G04 MADE WITH FRITZING*
G04 WWW.FRITZING.ORG*
G04 DOUBLE SIDED*
G04 HOLES PLATED*
G04 CONTOUR ON CENTER OF CONTOUR VECTOR*
%ASAXBY*%
%FSLAX23Y23*%
%MOIN*%
%OFA0B0*%
%SFA1.0B1.0*%
%ADD10C,0.148425*%
%ADD11C,0.076000*%
%ADD12C,0.086000*%
%ADD13C,0.032000*%
%ADD14C,0.085361*%
%ADD15C,0.104488*%
%ADD16R,0.001000X0.001000*%
%LNMASK0*%
G90*
G70*
G54D10*
X1837Y1337D03*
G54D11*
X1987Y1387D03*
X2087Y1387D03*
X2187Y1387D03*
X2287Y1387D03*
G54D10*
X1837Y437D03*
G54D11*
X2387Y1387D03*
X2487Y1387D03*
X2587Y1387D03*
X2687Y1387D03*
X2787Y1387D03*
X2887Y1387D03*
X2987Y1387D03*
X3087Y1387D03*
X3187Y1387D03*
X1987Y387D03*
X2087Y387D03*
X2187Y387D03*
X2287Y387D03*
X2387Y387D03*
X2487Y387D03*
X2587Y387D03*
X2687Y387D03*
X2787Y387D03*
X2887Y387D03*
X2987Y387D03*
X3087Y387D03*
X3187Y387D03*
G54D12*
X1837Y1187D03*
X1837Y1087D03*
X1837Y987D03*
X1837Y887D03*
X1837Y787D03*
X1837Y687D03*
X1837Y587D03*
G54D13*
X3302Y892D03*
G54D11*
X2902Y892D03*
G54D14*
X487Y1987D03*
X587Y1987D03*
X687Y1987D03*
X787Y1987D03*
X887Y1987D03*
X987Y1987D03*
X1087Y1987D03*
X1187Y1987D03*
X1287Y1987D03*
X1387Y1987D03*
X1487Y1987D03*
X1587Y1987D03*
X1687Y1987D03*
X1787Y1987D03*
X1887Y1987D03*
X1987Y1987D03*
X2087Y1987D03*
X2187Y1987D03*
X2287Y1987D03*
X2387Y1987D03*
X2387Y2087D03*
X2287Y2087D03*
X2187Y2087D03*
X2087Y2087D03*
X1987Y2087D03*
X1887Y2087D03*
X1787Y2087D03*
X1687Y2087D03*
X1587Y2087D03*
X1487Y2087D03*
X1387Y2087D03*
X1287Y2087D03*
X1187Y2087D03*
X1087Y2087D03*
X987Y2087D03*
X887Y2087D03*
X787Y2087D03*
X687Y2087D03*
X587Y2087D03*
X487Y2087D03*
G54D15*
X887Y487D03*
X487Y287D03*
X687Y787D03*
X887Y1387D03*
G54D16*
X3294Y930D02*
X3309Y930D01*
X3290Y929D02*
X3313Y929D01*
X3288Y928D02*
X3316Y928D01*
X3286Y927D02*
X3318Y927D01*
X3284Y926D02*
X3320Y926D01*
X3282Y925D02*
X3321Y925D01*
X3280Y924D02*
X3323Y924D01*
X3279Y923D02*
X3324Y923D01*
X3278Y922D02*
X3325Y922D01*
X3277Y921D02*
X3327Y921D01*
X3276Y920D02*
X3328Y920D01*
X3275Y919D02*
X3329Y919D01*
X3274Y918D02*
X3330Y918D01*
X3273Y917D02*
X3330Y917D01*
X3272Y916D02*
X3331Y916D01*
X3271Y915D02*
X3332Y915D01*
X3271Y914D02*
X3333Y914D01*
X3270Y913D02*
X3333Y913D01*
X3270Y873D02*
X3333Y873D01*
X3270Y872D02*
X3333Y872D01*
X3271Y871D02*
X3332Y871D01*
X3272Y870D02*
X3331Y870D01*
X3273Y869D02*
X3331Y869D01*
X3273Y868D02*
X3330Y868D01*
X3274Y867D02*
X3329Y867D01*
X3275Y866D02*
X3328Y866D01*
X3276Y865D02*
X3327Y865D01*
X3277Y864D02*
X3326Y864D01*
X3279Y863D02*
X3324Y863D01*
X3280Y862D02*
X3323Y862D01*
X3282Y861D02*
X3322Y861D01*
X3283Y860D02*
X3320Y860D01*
X3285Y859D02*
X3318Y859D01*
X3287Y858D02*
X3316Y858D01*
X3290Y857D02*
X3314Y857D01*
X3293Y856D02*
X3310Y856D01*
X3300Y855D02*
X3303Y855D01*
D02*
G04 End of Mask0*
M02*