; NON-PLATED HOLES START AT T1
; THROUGH (PLATED) HOLES START AT T100
M48
INCH
T100C0.039370
T101C0.031496
T102C0.040639
T103C0.038000
T104C0.098425
T105C0.032000
%
T100
X018374Y007874
X018374Y008874
X029874Y013874
X018374Y005874
X019874Y003874
X018374Y011874
X024874Y003874
X028874Y013874
X022874Y003874
X030874Y003874
X025874Y003874
X031874Y013874
X018374Y010874
X028874Y003874
X030874Y013874
X026874Y003874
X022874Y013874
X021874Y003874
X023874Y003874
X025874Y013874
X023874Y013874
X024874Y013874
X029874Y003874
X019874Y013874
X020874Y003874
X018374Y006874
X021874Y013874
X031874Y003874
X020874Y013874
X027874Y013874
X026874Y013874
X018374Y009874
X027874Y003874
T101
X006874Y007874
X004874Y002874
X008874Y004874
X008874Y013874
T102
X018874Y019874
X012874Y020874
X005874Y019874
X014874Y019874
X019874Y020874
X015874Y020874
X013874Y019874
X008874Y019874
X010874Y019874
X020874Y020874
X013874Y020874
X021874Y019874
X022874Y019874
X016874Y020874
X011874Y020874
X012874Y019874
X011874Y019874
X020874Y019874
X017874Y020874
X005874Y020874
X023874Y019874
X007874Y020874
X009874Y020874
X008874Y020874
X014874Y020874
X016874Y019874
X006874Y020874
X015874Y019874
X004874Y020874
X006874Y019874
X010874Y020874
X019874Y019874
X021874Y020874
X017874Y019874
X004874Y019874
X022874Y020874
X018874Y020874
X023874Y020874
X009874Y019874
X007874Y019874
T103
X033024Y008924
T104
X018374Y013374
X018374Y004374
T105
X029024Y008924
T00
M30
